
        <svg xmlns="http://www.w3.org/2000/svg" xmlns:xlink="http://www.w3.org/1999/xlink" version="1.1" width="3179.640718562874" 
        height="1020.3592814371257" viewBox="0 0 3179.640718562874 1020.3592814371257">
			<rect fill="#f5f5f5" width="3179.640718562874" height="1020.3592814371257"/>
			<g transform="scale(8.982035928143713) translate(10, 10)">
				<defs id="SvgjsDefs1896"></defs><g id="SvgjsG1897" featureKey="symbolFeature-0" transform="matrix(1.039999823676245,0,0,1.039999823676245,-20.005436671712804,-5.231203298576643)" fill="#15b7b9"><g xmlns="http://www.w3.org/2000/svg"><path stroke="#15b7b9" stroke-width="5" stroke-linecap="round" stroke-miterlimit="10" d="M63.455,21.081" fill="#15b7b9"></path><g><path d="M50.371,83.753C50.371,83.753,50.371,83.753,50.371,83.753c-8.267,0-13.779-1.842-16.328-2.939    c-1.24-0.534-2.042-1.751-2.042-3.101v-2.962c0-0.767,0.491-1.433,1.222-1.657c2.719-0.834,3.729-5.025,4.036-6.788    c0.151-0.865,0.937-1.478,1.827-1.397c5.332,0.492,9.915,0.595,12.82,0.595c1.199,0,2.343-0.017,3.399-0.049    c0.883-0.026,1.636,0.627,1.733,1.5c0.5,4.492,3.626,6.359,5.444,7.072c0.658,0.258,1.1,0.91,1.1,1.624v3.883    c0,1.659-1.192,3.061-2.835,3.333C57.186,83.454,53.694,83.753,50.371,83.753z M38.929,65.521c-0.524,0-0.969,0.375-1.059,0.891    c-0.407,2.33-1.527,6.373-4.465,7.274c-0.469,0.144-0.784,0.572-0.784,1.065v2.962c0,1.102,0.654,2.096,1.667,2.532    c2.506,1.079,7.927,2.888,16.082,2.889c0,0,0.001,0,0.001,0c3.289,0,6.747-0.296,10.276-0.88c1.342-0.222,2.317-1.366,2.317-2.721    v-3.883c0-0.46-0.284-0.881-0.707-1.047c-1.569-0.615-5.278-2.585-5.834-7.58c-0.06-0.542-0.518-0.95-1.064-0.95l-0.034,0.001    c-1.063,0.033-2.213,0.05-3.418,0.05c-2.918,0-7.521-0.104-12.877-0.597C38.996,65.523,38.962,65.521,38.929,65.521z"></path></g><path d="M56.718,7.689c-3.149-0.824-6.24-0.828-6.365-0.833c0,0-0.129-0.004-0.364-0.004c-2.55,0-15.27,0.413-15.27,8.564   c0,4.079,1.652,6.16,3.038,7.187c1.433,1.062,2.856,1.24,3.051,1.26c1.026,0.216,3.623,1.08,3.579,2.534   c-0.005,0.165,0.12,0.309,0.284,0.322c0.009,0.001,0.017,0.001,0.026,0.001c0.154,0,0.285-0.11,0.305-0.265   c0.004-0.022,0.489-2.174,7.575-2.472c1.212-0.051,3.853-1.152,6.174-2.907c2.047-1.547,4.487-4.073,4.489-7.324   C63.244,10.902,60.988,8.806,56.718,7.689z M58.866,20.199c0.11-1.055-0.139-2.872-9.743-2.872c-11.115,0-9.447,5.494-9.447,5.494   l0.035,0.132c-0.466-0.17-1.024-0.436-1.582-0.849c-1.85-1.37-2.788-3.621-2.788-6.689c0-3.183,2.154-5.468,6.401-6.792   c3.428-1.069,7.181-1.152,8.249-1.152c0.221,0,0.344,0.003,0.355,0.004c0.031,0,3.154,0.01,6.227,0.816   c4.016,1.053,6.052,2.89,6.051,5.46C62.621,16.5,60.68,18.722,58.866,20.199z"></path><path d="M38.915,19.434"></path><path d="M64.651,15.7c-0.163-0.052-0.337,0.037-0.39,0.2c-1.943,6.058-8.308,9.527-13.591,9.823   c-0.166,0.009-0.295,0.148-0.292,0.315c0.006,0.349-0.074,1.351-0.505,1.788c-0.14,0.142-0.306,0.211-0.508,0.211   c-1.057,0-1.246-0.883-1.264-0.981c-0.028-0.169-0.188-0.284-0.356-0.255c-0.169,0.028-0.283,0.188-0.255,0.356   c0.06,0.36,0.321,0.941,0.903,1.264v5.667c0,0.074,0.011,0.146,0.031,0.215c-0.259,0.238-0.423,0.576-0.423,0.954   c0,0.364,0.151,0.693,0.392,0.93v0.723c0,0.433,0.352,0.785,0.785,0.785h0.248c0.433,0,0.785-0.352,0.785-0.785v-0.723   c0.242-0.236,0.392-0.566,0.392-0.93c0-0.378-0.164-0.717-0.423-0.954c0.019-0.068,0.031-0.14,0.031-0.215v-5.733   c0.036-0.03,0.071-0.062,0.104-0.096c0.517-0.527,0.643-1.46,0.673-1.936c2.66-0.203,5.515-1.176,7.878-2.69   c2.935-1.88,5.004-4.489,5.984-7.544C64.904,15.927,64.814,15.753,64.651,15.7z M49.896,34.717   c0.131,0.143,0.212,0.332,0.212,0.541c0,0.444-0.361,0.806-0.806,0.806c-0.444,0-0.806-0.361-0.806-0.806   c0-0.209,0.081-0.398,0.212-0.541c0.131,0.098,0.293,0.157,0.469,0.157h0.248C49.603,34.874,49.765,34.815,49.896,34.717z    M49.716,36.91c0,0.159-0.13,0.289-0.289,0.289h-0.248c-0.159,0-0.289-0.13-0.289-0.289v-0.42c0.13,0.044,0.269,0.068,0.413,0.068   c0.144,0,0.283-0.025,0.413-0.068V36.91z M49.716,34.089c0,0.159-0.13,0.289-0.289,0.289h-0.248c-0.159,0-0.289-0.13-0.289-0.289   v-5.482c0.146,0.032,0.303,0.051,0.476,0.051c0.123,0,0.239-0.016,0.35-0.045V34.089z"></path><path d="M80.761,40.506c0.002-0.146,0-0.299-0.008-0.468c-0.113-4.951-2.097-9.794-5.443-13.289   c-0.028-0.031-0.057-0.061-0.085-0.09l-0.021-0.021l-0.006-0.007c-0.024-0.024-0.047-0.048-0.071-0.072l-0.022-0.022   c-0.091-0.093-0.182-0.182-0.271-0.267c-0.882-0.854-1.823-1.586-2.798-2.175c-1.186-0.752-2.522-1.426-3.972-2.005   c-0.608-0.255-1.2-0.479-1.768-0.668c1.2-2.284,1.45-4.908,0.721-7.61c-0.566-2.096-1.514-3.496-1.554-3.554l-0.002-0.003   l-0.002-0.003c-1.503-2.148-4.278-3.669-8.249-4.523c-3.012-0.647-5.735-0.68-6.25-0.68c-0.035,0-0.061,0-0.078,0   c-0.088-0.004-0.457-0.019-1.037-0.019c-2.132,0-6.265,0.195-9.992,1.505c-2.17,0.762-3.89,1.802-5.111,3.089   c-1.495,1.576-2.254,3.525-2.254,5.793c0,1.967,0.331,3.715,0.984,5.209c-1.311,0.296-3.992,1.074-6.698,2.891   c-2.188,1.47-3.933,3.316-5.185,5.488c-1.561,2.707-2.353,5.919-2.353,9.548v45.539v0.023l0.002,0.023   c0.008,0.099,0.196,2.359,1.726,3.959v2.013c0,1.048,0.66,1.996,1.643,2.359c0.759,0.281,1.539,0.423,2.318,0.423   c0.781,0,1.555-0.145,2.299-0.432c0.962-0.371,1.609-1.314,1.609-2.347v-1.34c0.491-0.255,0.929-0.566,1.309-0.928   c2.353,1.738,6.69,3.791,14.398,4.444c2.663,0.226,5.018,0.335,7.202,0.335c7.302,0,11.608-1.291,16.167-2.658   c0.296-0.089,0.57-0.232,0.811-0.42c0.274,0.293,0.579,0.553,0.912,0.777v1.827c0,1.028,0.609,1.94,1.551,2.323   c0.909,0.37,1.849,0.557,2.791,0.557c0.937,0,1.861-0.189,2.748-0.562c0.933-0.393,1.536-1.302,1.536-2.317v-2.177   c2.458-2.051,2.444-7.27,2.442-7.557C80.702,81.967,80.761,54.976,80.761,40.506z M79.773,82.442   c0.003,0.041,0.273,4.079-1.886,6.402c-1.005,1.081-2.392,1.629-4.125,1.629c-1.702,0-3.072-0.541-4.072-1.607   c-2.174-2.317-1.941-6.387-1.939-6.428c0-0.007,0.001-0.013,0.001-0.02V40.995c0-0.171-0.139-0.31-0.31-0.31s-0.31,0.139-0.31,0.31   V82.41c-0.009,0.157-0.072,1.427,0.238,2.953c-1.506,0.545-9.895,3.265-23.764,1.899c-8.085-0.797-11.857-3.128-13.598-4.944   c-1.86-1.94-1.848-3.715-1.847-3.74l0-38.878c0-0.171-0.139-0.31-0.31-0.31c-0.171,0-0.31,0.139-0.31,0.31l0,38.87   c-0.002,0.072-0.024,1.587,1.356,3.402v3.226c0,0.695,0.267,1.348,0.742,1.835c-1.049,1.091-2.715,1.676-4.855,1.676   c-4.147,0-4.59-4.323-4.616-4.628V38.553c0-6.279,2.391-11.074,7.107-14.251c3.057-2.06,6.154-2.733,6.954-2.88   c0.606,1.054,1.325,1.819,1.989,2.363c1.333,1.091,2.656,1.502,3.198,1.634c0.029,0.493,0.17,1.558,0.84,2.076v5.644   c0,0.04,0.004,0.079,0.01,0.117c-0.247,0.237-0.402,0.568-0.402,0.937c0,0.364,0.151,0.693,0.392,0.93v0.671   c0,0.433,0.352,0.785,0.785,0.785h0.248c0.433,0,0.785-0.352,0.785-0.785v-0.671c0.242-0.236,0.392-0.566,0.392-0.93   c0-0.368-0.156-0.699-0.402-0.935c0.006-0.039,0.01-0.078,0.01-0.118v-5.52c0.147-0.069,0.276-0.158,0.389-0.267   c0.405-0.394,0.417-0.891,0.417-0.946c0-0.17-0.137-0.306-0.306-0.308c-0.176-0.001-0.309,0.135-0.313,0.305   c0,0.003-0.009,0.296-0.235,0.511c-0.191,0.182-0.492,0.268-0.892,0.257c-1.122-0.032-1.104-1.979-1.104-1.998   c0.003-0.154-0.108-0.287-0.26-0.311c-0.016-0.003-1.588-0.27-3.158-1.555c-0.789-0.646-1.433-1.421-1.931-2.32   c-0.011-0.033-0.027-0.064-0.048-0.091c-0.805-1.495-1.212-3.326-1.212-5.478c0-2.169,0.774-4.004,2.3-5.455   C40.416,5.5,50.753,5.974,50.857,5.979c0.007,0,0.013,0.001,0.02,0c0.104,0,10.397-0.087,13.822,4.804   c0.062,0.091,3.529,5.299,0.66,10.42l-0.146,0.209c-0.593-0.162-0.931-0.217-0.971-0.223c-0.169-0.026-0.327,0.09-0.353,0.259   c-0.026,0.169,0.089,0.327,0.258,0.354c0.028,0.004,2.858,0.468,7.164,2.941c4.241,2.436,8.521,8.253,8.521,15.759   c0,14.516-0.059,41.645-0.059,41.917C79.772,82.427,79.773,82.434,79.773,82.442z M77.331,90.121v2.03   c0,0.64-0.38,1.214-0.967,1.461c-1.962,0.826-3.709,0.456-4.829,0.001c-0.59-0.24-0.972-0.814-0.972-1.462v-1.822   c0.908,0.508,1.978,0.766,3.199,0.766C75.155,91.094,76.349,90.766,77.331,90.121z M68.529,88.371   c-0.193,0.331-0.504,0.591-0.885,0.705c-4.601,1.38-8.713,2.613-15.969,2.613c-2.068,0-4.393-0.1-7.055-0.326   c-8.016-0.679-12.235-2.879-14.364-4.605c-0.47-0.381-0.74-0.95-0.74-1.561V82.7c2.628,2.778,7.348,4.52,14.029,5.178   c2.743,0.27,5.274,0.381,7.585,0.381c9.275,0,14.979-1.793,16.38-2.29C67.722,86.771,68.042,87.608,68.529,88.371z M22.931,91.598   c-0.619-0.229-1.036-0.827-1.036-1.488v-1.626c0.722,0.505,1.662,0.844,2.889,0.844c1.176,0,2.223-0.167,3.122-0.489v1.275   c0,0.651-0.408,1.246-1.014,1.48C25.284,92.213,23.851,91.938,22.931,91.598z M41.042,33.924h0.248   c0.202,0,0.387-0.078,0.526-0.204c0.097,0.133,0.156,0.295,0.156,0.472c0,0.444-0.361,0.806-0.806,0.806   c-0.444,0-0.806-0.361-0.806-0.806c0-0.177,0.058-0.34,0.155-0.473C40.655,33.846,40.839,33.924,41.042,33.924z M40.753,33.139   v-5.4c0.112,0.029,0.232,0.047,0.363,0.051c0.029,0.001,0.058,0.001,0.087,0.001c0.133,0,0.258-0.009,0.377-0.027v5.375   c0,0.16-0.13,0.289-0.289,0.289h-0.248C40.882,33.428,40.753,33.298,40.753,33.139z M41.579,35.425v0.367   c0,0.159-0.13,0.289-0.289,0.289h-0.248c-0.159,0-0.289-0.13-0.289-0.289v-0.367c0.13,0.044,0.269,0.068,0.413,0.068   C41.31,35.493,41.449,35.469,41.579,35.425z"></path></g></g><g id="SvgjsG1898" featureKey="nameFeature-0" transform="matrix(0.625709623226109,0,0,0.625709623226109,81.16459692827902,35.21773646564956)" fill="#15b7b9"><path d="M11.094 16.875 l0 -15.547 l-6.5625 0 l0 37.344 l6.5625 0 l0 -21.797 z M28.984 1.328000000000003 l0 15.547 l-11.406 0 l0 6.0938 l11.406 0 l0 15.703 l6.4844 0 l0 -37.344 l-6.4844 0 z M58.344 32.6562 c-0.78125 -0.15625 -1.5105 -0.3907 -2.1876 -0.7032 c-1.4584 -0.67711 -2.7344 -1.6146 -3.8281 -2.8125 c-1.0416 -1.0938 -1.875 -2.4479 -2.5 -4.0625 c-0.57289 -1.6146 -0.85938 -3.2552 -0.85938 -4.9219 l0 -0.15625 l0 -0.23438 c0 -1.7188 0.28648 -3.3854 0.85938 -5 c0.67711 -1.6666 1.5105 -2.9948 2.5001 -3.9844 c1.0416 -1.1979 2.2916 -2.1094 3.75 -2.7344 c0.88539 -0.41664 1.6406 -0.67703 2.2656 -0.78117 l0 -5.8594 c-1.8229 0.26039 -3.4375 0.70313 -4.8438 1.3281 c-2.2916 0.98961 -4.2448 2.3177 -5.8594 3.9844 s-2.8906 3.6458 -3.8281 5.9374 s-1.4063 4.6875 -1.4063 7.1875 l0 0.15625 l0 0.23438 c0 2.5521 0.46875 4.948 1.4063 7.1876 c0.83336 2.2396 2.0834 4.1927 3.75 5.8594 c1.6666 1.7188 3.6198 3.0469 5.8594 3.9844 c1.4063 0.625 3.0469 1.0677 4.9219 1.3281 l0 -5.9375 z M79.594 20 l0.000076294 -0.23438 c0 -2.5521 -0.46875 -4.948 -1.4063 -7.1876 c-0.9375 -2.2916 -2.2135 -4.2708 -3.8281 -5.9374 c-1.5625 -1.6666 -3.4896 -2.9688 -5.7813 -3.9063 c-1.3021 -0.625 -2.8906 -1.0677 -4.7656 -1.3281 l0 5.9375 l0.9375 0.3125 c0.46875 0.15625 0.83336 0.28648 1.0938 0.39063 c1.4584 0.67711 2.7344 1.6146 3.8281 2.8125 c1.0416 1.0938 1.875 2.4479 2.5 4.0625 c0.57289 1.6146 0.85938 3.2552 0.85938 4.9219 l0 0.15625 l0 0.23438 c0 1.7188 -0.28648 3.3854 -0.85938 5 c-0.67711 1.6666 -1.5105 2.9948 -2.5001 3.9844 c-1.0416 1.1979 -2.2916 2.1094 -3.75 2.7344 c-0.67711 0.3125 -1.3802 0.54688 -2.1094 0.70313 l0 5.9375 c1.5625 -0.20836 3.125 -0.65109 4.6875 -1.3282 c2.1354 -0.88539 4.0885 -2.2135 5.8594 -3.9844 c1.7188 -1.8229 2.9948 -3.802 3.8281 -5.9374 c0.9375 -2.2916 1.4063 -4.6875 1.4063 -7.1875 l0 -0.15625 z M99.344 32.6562 c-0.78125 -0.15625 -1.5105 -0.3907 -2.1876 -0.7032 c-1.4584 -0.67711 -2.7344 -1.6146 -3.8281 -2.8125 c-1.0416 -1.0938 -1.875 -2.4479 -2.5 -4.0625 c-0.57289 -1.6146 -0.85938 -3.2552 -0.85938 -4.9219 l0 -0.15625 l0 -0.23438 c0 -1.7188 0.28648 -3.3854 0.85938 -5 c0.67711 -1.6666 1.5105 -2.9948 2.5001 -3.9844 c1.0416 -1.1979 2.2916 -2.1094 3.75 -2.7344 c0.88539 -0.41664 1.6406 -0.67703 2.2656 -0.78117 l0 -5.8594 c-1.8229 0.26039 -3.4375 0.70313 -4.8438 1.3281 c-2.2916 0.98961 -4.2448 2.3177 -5.8594 3.9844 s-2.8906 3.6458 -3.8281 5.9374 s-1.4063 4.6875 -1.4063 7.1875 l0 0.15625 l0 0.23438 c0 2.5521 0.46875 4.948 1.4063 7.1876 c0.83336 2.2396 2.0834 4.1927 3.75 5.8594 c1.6666 1.7188 3.6198 3.0469 5.8594 3.9844 c1.4063 0.625 3.0469 1.0677 4.9219 1.3281 l0 -5.9375 z M120.594 20 l0.000076294 -0.23438 c0 -2.5521 -0.46875 -4.948 -1.4063 -7.1876 c-0.9375 -2.2916 -2.2135 -4.2708 -3.8281 -5.9374 c-1.5625 -1.6666 -3.4896 -2.9688 -5.7813 -3.9063 c-1.3021 -0.625 -2.8906 -1.0677 -4.7656 -1.3281 l0 5.9375 l0.9375 0.3125 c0.46875 0.15625 0.83336 0.28648 1.0938 0.39063 c1.4584 0.67711 2.7344 1.6146 3.8281 2.8125 c1.0416 1.0938 1.875 2.4479 2.5 4.0625 c0.57289 1.6146 0.85938 3.2552 0.85938 4.9219 l0 0.15625 l0 0.23438 c0 1.7188 -0.28648 3.3854 -0.85938 5 c-0.67711 1.6666 -1.5105 2.9948 -2.5001 3.9844 c-1.0416 1.1979 -2.2916 2.1094 -3.75 2.7344 c-0.67711 0.3125 -1.3802 0.54688 -2.1094 0.70313 l0 5.9375 c1.5625 -0.20836 3.125 -0.65109 4.6875 -1.3282 c2.1354 -0.88539 4.0885 -2.2135 5.8594 -3.9844 c1.7188 -1.8229 2.9948 -3.802 3.8281 -5.9374 c0.9375 -2.2916 1.4063 -4.6875 1.4063 -7.1875 l0 -0.15625 z M155.813 27.344 c-0.98961 2.3959 -2.3438 4.375 -4.0625 5.9375 c-1.7709 1.6666 -3.8542 2.9688 -6.2501 3.9063 s-5.0781 1.4063 -8.0469 1.4063 l-8.6719 0 l0 -5.9375 l8.5938 0 c1.9791 0 3.776 -0.3125 5.3906 -0.9375 c1.5625 -0.625 2.9166 -1.5104 4.0625 -2.6563 s2.0313 -2.5 2.6563 -4.0625 s0.9375 -3.2813 0.9375 -5.1563 c0 -1.8229 -0.3125 -3.5156 -0.9375 -5.0781 c-0.625 -1.6146 -1.5104 -2.9427 -2.6563 -3.9844 c-1.0416 -1.0938 -2.3958 -1.9791 -4.0624 -2.6563 c-1.6666 -0.625 -3.4635 -0.9375 -5.3906 -0.9375 l-8.5938 0 l0 -5.9375 l8.6719 0 c2.7604 0 5.4166 0.49477 7.9688 1.4844 c2.3959 0.88539 4.5052 2.2135 6.3281 3.9844 c1.7709 1.6146 3.125 3.5938 4.0625 5.9375 c0.98961 2.3959 1.4844 4.8438 1.4844 7.3438 c0 2.7084 -0.49477 5.1563 -1.4844 7.3438 z M187.281 16.875 l0 -15.547 l-6.5625 0 l0 37.344 l6.5625 0 l0 -21.797 z M211.0938 1.4059999999999988 l27.813 0 l0 5.9375 l-27.813 0 l0 -5.9375 z M211.0938 32.6562 l27.734 0 l0 5.9375 l-27.734 0 l0 -5.9375 z M211.0938 16.875 l25.078 0 l0 5.8594 l-25.078 0 l0 -5.8594 z M257.094 16.875 l0 -15.547 l-6.5625 0 l0 37.344 l6.5625 0 l0 -21.797 z M274.984 1.328000000000003 l0 15.547 l-11.406 0 l0 6.0938 l11.406 0 l0 15.703 l6.4844 0 l0 -37.344 l-6.4844 0 z M316.141 1.328000000000003 l0 21.25 c0 3.4375 -0.83336 5.9896 -2.5 7.6563 c-0.88539 0.98961 -2.1094 1.7188 -3.6719 2.1875 l0 6.0938 c1.25 -0.15625 2.3438 -0.41664 3.2813 -0.78125 c1.9271 -0.67711 3.5938 -1.6927 5 -3.0469 c1.4063 -1.5104 2.4479 -3.2552 3.125 -5.2343 c0.78125 -2.0313 1.1719 -4.4271 1.1719 -7.1875 l0 -20.938 l-6.4063 0 z M297.938 1.4059999999999988 l0 21.25 c0 3.3334 0.83336 5.8855 2.5 7.6563 c0.98961 0.98961 2.2136 1.6927 3.672 2.1094 l0 6.1719 c-0.88539 -0.10414 -1.9791 -0.36453 -3.2813 -0.78117 c-1.9791 -0.72914 -3.6198 -1.7708 -4.9219 -3.1249 c-1.4584 -1.3541 -2.5261 -3.0729 -3.2032 -5.1563 c-0.72914 -1.875 -1.0938 -4.2709 -1.0938 -7.1875 l0 -20.938 l6.3281 0 z M362.609 25 c-0.36461 -0.98961 -0.88531 -1.8488 -1.5624 -2.578 c-0.46875 -0.52086 -1.224 -1.1198 -2.2656 -1.797 c-1.1459 -0.57289 -2.1615 -1.0156 -3.0469 -1.3281 c0.625 -0.36461 1.3021 -0.78125 2.0313 -1.25 c0.72914 -0.625 1.276 -1.224 1.6406 -1.7969 c0.46875 -0.625 0.85938 -1.3802 1.1719 -2.2656 c0.3125 -0.9375 0.46875 -1.9531 0.46875 -3.0469 c0 -2.9166 -1.0938 -5.2344 -3.2813 -6.9531 s-5.1563 -2.5781 -8.9063 -2.5781 l-14.453 0 l0 5.7813 l13.672 0 c1.9791 0 3.5938 0.41664 4.8438 1.25 c1.0938 0.83336 1.6406 2.0313 1.6406 3.5938 c0 1.7709 -0.625 3.0469 -1.875 3.8281 c-1.3021 0.83336 -2.9948 1.25 -5.0782 1.25 l-13.203 0 l0 5.4688 l14.609 0 c2.5 0 4.401 0.44273 5.7031 1.3281 c1.25 0.9375 1.875 2.1875 1.875 3.75 c0 1.6666 -0.625 2.9427 -1.875 3.828 c-1.3021 0.88539 -3.0469 1.3281 -5.2344 1.3281 l-15.078 0 l0 5.7813 l15 0 c2.0313 0 3.9063 -0.23438 5.625 -0.70313 c1.7709 -0.52086 3.2031 -1.1719 4.2969 -1.9531 s2.0313 -1.849 2.8125 -3.2031 c0.625 -1.25 0.9375 -2.7084 0.9375 -4.375 c0 -1.3021 -0.15625 -2.4219 -0.46875 -3.3594 z M403.609 25 c-0.36461 -0.98961 -0.88531 -1.8488 -1.5624 -2.578 c-0.46875 -0.52086 -1.224 -1.1198 -2.2656 -1.797 c-1.1459 -0.57289 -2.1615 -1.0156 -3.0469 -1.3281 c0.625 -0.36461 1.3021 -0.78125 2.0313 -1.25 c0.72914 -0.625 1.276 -1.224 1.6406 -1.7969 c0.46875 -0.625 0.85938 -1.3802 1.1719 -2.2656 c0.3125 -0.9375 0.46875 -1.9531 0.46875 -3.0469 c0 -2.9166 -1.0938 -5.2344 -3.2813 -6.9531 s-5.1563 -2.5781 -8.9063 -2.5781 l-14.453 0 l0 5.7813 l13.672 0 c1.9791 0 3.5938 0.41664 4.8438 1.25 c1.0938 0.83336 1.6406 2.0313 1.6406 3.5938 c0 1.7709 -0.625 3.0469 -1.875 3.8281 c-1.3021 0.83336 -2.9948 1.25 -5.0782 1.25 l-13.203 0 l0 5.4688 l14.609 0 c2.5 0 4.401 0.44273 5.7031 1.3281 c1.25 0.9375 1.875 2.1875 1.875 3.75 c0 1.6666 -0.625 2.9427 -1.875 3.828 c-1.3021 0.88539 -3.0469 1.3281 -5.2344 1.3281 l-15.078 0 l0 5.7813 l15 0 c2.0313 0 3.9063 -0.23438 5.625 -0.70313 c1.7709 -0.52086 3.2031 -1.1719 4.2969 -1.9531 s2.0313 -1.849 2.8125 -3.2031 c0.625 -1.25 0.9375 -2.7084 0.9375 -4.375 c0 -1.3021 -0.15625 -2.4219 -0.46875 -3.3594 z"></path></g>
			</g>
		</svg>
	